<mxfile host="app.diagrams.net" agent="Mozilla/5.0 (Macintosh; Intel Mac OS X 10_15_7) AppleWebKit/605.1.15 (KHTML, like Gecko) Version/18.3.1 Safari/605.1.15" version="26.1.1">
  <diagram name="Seite-1" id="7C-oiIUWpm0fguvAY2vJ">
    <mxGraphModel dx="2626" dy="1015" grid="1" gridSize="10" guides="1" tooltips="1" connect="1" arrows="1" fold="1" page="1" pageScale="1" pageWidth="827" pageHeight="1169" math="0" shadow="0">
      <root>
        <mxCell id="0" />
        <mxCell id="1" parent="0" />
        <mxCell id="jgkdkRi5wZSLpXERYYsL-11" value="Cell (zone1)&lt;div&gt;&lt;br&gt;&lt;/div&gt;&lt;div&gt;&lt;br&gt;&lt;/div&gt;&lt;div&gt;&lt;br&gt;&lt;/div&gt;&lt;div&gt;&lt;br&gt;&lt;/div&gt;&lt;div&gt;&lt;br&gt;&lt;/div&gt;&lt;div&gt;&lt;br&gt;&lt;/div&gt;&lt;div&gt;&lt;br&gt;&lt;/div&gt;&lt;div&gt;&lt;br&gt;&lt;/div&gt;&lt;div&gt;&lt;br&gt;&lt;/div&gt;&lt;div&gt;&lt;br&gt;&lt;/div&gt;&lt;div&gt;&lt;br&gt;&lt;/div&gt;&lt;div&gt;&lt;br&gt;&lt;/div&gt;&lt;div&gt;&lt;br&gt;&lt;/div&gt;&lt;div&gt;&lt;br&gt;&lt;/div&gt;&lt;div&gt;&lt;br&gt;&lt;/div&gt;&lt;div&gt;&lt;br&gt;&lt;/div&gt;&lt;div&gt;&lt;br&gt;&lt;/div&gt;&lt;div&gt;&lt;br&gt;&lt;/div&gt;&lt;div&gt;&lt;br&gt;&lt;/div&gt;&lt;div&gt;&lt;br&gt;&lt;/div&gt;&lt;div&gt;&lt;br&gt;&lt;/div&gt;&lt;div&gt;&lt;br&gt;&lt;/div&gt;&lt;div&gt;&lt;br&gt;&lt;/div&gt;&lt;div&gt;&lt;br&gt;&lt;/div&gt;&lt;div&gt;&lt;br&gt;&lt;/div&gt;&lt;div&gt;&lt;br&gt;&lt;/div&gt;&lt;div&gt;&lt;br&gt;&lt;/div&gt;&lt;div&gt;&lt;br&gt;&lt;/div&gt;&lt;div&gt;&lt;br&gt;&lt;/div&gt;&lt;div&gt;&lt;br&gt;&lt;/div&gt;&lt;div&gt;&lt;br&gt;&lt;/div&gt;&lt;div&gt;&lt;br&gt;&lt;/div&gt;&lt;div&gt;&lt;br&gt;&lt;/div&gt;&lt;div&gt;&lt;br&gt;&lt;/div&gt;&lt;div&gt;&lt;br&gt;&lt;/div&gt;&lt;div&gt;&lt;br&gt;&lt;/div&gt;&lt;div&gt;&lt;br&gt;&lt;/div&gt;&lt;div&gt;&lt;br&gt;&lt;/div&gt;&lt;div&gt;&lt;br&gt;&lt;/div&gt;&lt;div&gt;&lt;br&gt;&lt;/div&gt;&lt;div&gt;&lt;br&gt;&lt;/div&gt;&lt;div&gt;&lt;br&gt;&lt;/div&gt;&lt;div&gt;&lt;br&gt;&lt;/div&gt;&lt;div&gt;&lt;br&gt;&lt;/div&gt;&lt;div&gt;&lt;br&gt;&lt;/div&gt;&lt;div&gt;&lt;br&gt;&lt;/div&gt;" style="rounded=1;whiteSpace=wrap;html=1;fillColor=#f5f5f5;fontColor=#333333;strokeColor=#666666;fillOpacity=50;" vertex="1" parent="1">
          <mxGeometry x="-100" y="160" width="1830" height="710" as="geometry" />
        </mxCell>
        <mxCell id="jgkdkRi5wZSLpXERYYsL-47" value="Keyspace (customer)&lt;div&gt;&lt;br&gt;&lt;/div&gt;&lt;div&gt;&lt;br&gt;&lt;/div&gt;&lt;div&gt;&lt;br&gt;&lt;/div&gt;&lt;div&gt;&lt;br&gt;&lt;/div&gt;&lt;div&gt;&lt;br&gt;&lt;/div&gt;&lt;div&gt;&lt;br&gt;&lt;/div&gt;&lt;div&gt;&lt;br&gt;&lt;/div&gt;&lt;div&gt;&lt;br&gt;&lt;/div&gt;&lt;div&gt;&lt;br&gt;&lt;/div&gt;&lt;div&gt;&lt;br&gt;&lt;/div&gt;&lt;div&gt;&lt;br&gt;&lt;/div&gt;&lt;div&gt;&lt;br&gt;&lt;/div&gt;&lt;div&gt;&lt;br&gt;&lt;/div&gt;&lt;div&gt;&lt;br&gt;&lt;/div&gt;&lt;div&gt;&lt;br&gt;&lt;/div&gt;&lt;div&gt;&lt;br&gt;&lt;/div&gt;&lt;div&gt;&lt;br&gt;&lt;/div&gt;&lt;div&gt;&lt;br&gt;&lt;/div&gt;&lt;div&gt;&lt;br&gt;&lt;/div&gt;&lt;div&gt;&lt;br&gt;&lt;/div&gt;" style="rounded=1;whiteSpace=wrap;html=1;fillColor=#f5f5f5;fontColor=#333333;strokeColor=#666666;fillOpacity=50;" vertex="1" parent="1">
          <mxGeometry x="390" y="460" width="880" height="310" as="geometry" />
        </mxCell>
        <mxCell id="jgkdkRi5wZSLpXERYYsL-84" value="" style="group" vertex="1" connectable="0" parent="1">
          <mxGeometry x="1420" y="260" width="280" height="509.9999999999999" as="geometry" />
        </mxCell>
        <mxCell id="jgkdkRi5wZSLpXERYYsL-21" value="Control Plane&lt;div&gt;&lt;br&gt;&lt;/div&gt;&lt;div&gt;&lt;br&gt;&lt;/div&gt;&lt;div&gt;&lt;br&gt;&lt;/div&gt;&lt;div&gt;&lt;br&gt;&lt;/div&gt;&lt;div&gt;&lt;br&gt;&lt;/div&gt;&lt;div&gt;&lt;br&gt;&lt;/div&gt;&lt;div&gt;&lt;br&gt;&lt;/div&gt;&lt;div&gt;&lt;br&gt;&lt;/div&gt;&lt;div&gt;&lt;br&gt;&lt;/div&gt;&lt;div&gt;&lt;br&gt;&lt;/div&gt;&lt;div&gt;&lt;br&gt;&lt;/div&gt;&lt;div&gt;&lt;br&gt;&lt;/div&gt;&lt;div&gt;&lt;br&gt;&lt;/div&gt;&lt;div&gt;&lt;br&gt;&lt;/div&gt;&lt;div&gt;&lt;br&gt;&lt;/div&gt;&lt;div&gt;&lt;br&gt;&lt;/div&gt;&lt;div&gt;&lt;br&gt;&lt;/div&gt;&lt;div&gt;&lt;br&gt;&lt;/div&gt;&lt;div&gt;&lt;br&gt;&lt;/div&gt;&lt;div&gt;&lt;br&gt;&lt;/div&gt;&lt;div&gt;&lt;br&gt;&lt;/div&gt;&lt;div&gt;&lt;br&gt;&lt;/div&gt;&lt;div&gt;&lt;br&gt;&lt;/div&gt;&lt;div&gt;&lt;br&gt;&lt;/div&gt;&lt;div&gt;&lt;br&gt;&lt;/div&gt;&lt;div&gt;&lt;br&gt;&lt;/div&gt;&lt;div&gt;&lt;br&gt;&lt;/div&gt;&lt;div&gt;&lt;br&gt;&lt;/div&gt;&lt;div&gt;&lt;br&gt;&lt;/div&gt;&lt;div&gt;&lt;br&gt;&lt;/div&gt;&lt;div&gt;&lt;br&gt;&lt;/div&gt;&lt;div&gt;&lt;br&gt;&lt;/div&gt;" style="rounded=1;whiteSpace=wrap;html=1;fillColor=#f5f5f5;fontColor=#333333;strokeColor=#666666;fillOpacity=50;" vertex="1" parent="jgkdkRi5wZSLpXERYYsL-84">
          <mxGeometry width="280" height="509.9999999999999" as="geometry" />
        </mxCell>
        <mxCell id="jgkdkRi5wZSLpXERYYsL-22" value="Topology&lt;div&gt;Store&lt;/div&gt;&lt;div&gt;(etcd)&lt;/div&gt;" style="shape=cylinder3;whiteSpace=wrap;html=1;boundedLbl=1;backgroundOutline=1;size=15;fillColor=#f8cecc;strokeColor=#b85450;" vertex="1" parent="jgkdkRi5wZSLpXERYYsL-84">
          <mxGeometry x="197" y="150" width="60" height="340" as="geometry" />
        </mxCell>
        <mxCell id="jgkdkRi5wZSLpXERYYsL-76" style="edgeStyle=orthogonalEdgeStyle;rounded=0;orthogonalLoop=1;jettySize=auto;html=1;exitX=0.5;exitY=1;exitDx=0;exitDy=0;entryX=0.5;entryY=0;entryDx=0;entryDy=0;startArrow=classic;startFill=1;" edge="1" parent="jgkdkRi5wZSLpXERYYsL-84" source="jgkdkRi5wZSLpXERYYsL-23" target="jgkdkRi5wZSLpXERYYsL-72">
          <mxGeometry relative="1" as="geometry" />
        </mxCell>
        <mxCell id="jgkdkRi5wZSLpXERYYsL-23" value="VTAdmin&lt;div&gt;(GUI)&lt;/div&gt;" style="rounded=1;whiteSpace=wrap;html=1;fillColor=#d5e8d4;strokeColor=#82b366;" vertex="1" parent="jgkdkRi5wZSLpXERYYsL-84">
          <mxGeometry x="20" y="65.80000000000001" width="120" height="44.2" as="geometry" />
        </mxCell>
        <mxCell id="jgkdkRi5wZSLpXERYYsL-72" value="vtctld" style="rounded=1;whiteSpace=wrap;html=1;fillColor=#d5e8d4;strokeColor=#82b366;" vertex="1" parent="jgkdkRi5wZSLpXERYYsL-84">
          <mxGeometry x="20" y="180" width="120" height="44.2" as="geometry" />
        </mxCell>
        <mxCell id="jgkdkRi5wZSLpXERYYsL-73" value="vtorc&lt;div&gt;(customer-x-80)&lt;/div&gt;" style="rounded=1;whiteSpace=wrap;html=1;fillColor=#d5e8d4;strokeColor=#82b366;" vertex="1" parent="jgkdkRi5wZSLpXERYYsL-84">
          <mxGeometry x="20" y="320" width="120" height="44.2" as="geometry" />
        </mxCell>
        <mxCell id="jgkdkRi5wZSLpXERYYsL-74" value="vtorc&lt;div&gt;(customer-80-x)&lt;/div&gt;" style="rounded=1;whiteSpace=wrap;html=1;fillColor=#d5e8d4;strokeColor=#82b366;" vertex="1" parent="jgkdkRi5wZSLpXERYYsL-84">
          <mxGeometry x="20" y="375.79999999999995" width="120" height="44.2" as="geometry" />
        </mxCell>
        <mxCell id="jgkdkRi5wZSLpXERYYsL-75" value="vtorc&lt;div&gt;(commerce-x-x)&lt;/div&gt;" style="rounded=1;whiteSpace=wrap;html=1;fillColor=#d5e8d4;strokeColor=#82b366;" vertex="1" parent="jgkdkRi5wZSLpXERYYsL-84">
          <mxGeometry x="20" y="435.79999999999995" width="120" height="44.2" as="geometry" />
        </mxCell>
        <mxCell id="jgkdkRi5wZSLpXERYYsL-80" style="edgeStyle=orthogonalEdgeStyle;rounded=0;orthogonalLoop=1;jettySize=auto;html=1;entryX=0.006;entryY=0.908;entryDx=0;entryDy=0;entryPerimeter=0;" edge="1" parent="jgkdkRi5wZSLpXERYYsL-84" source="jgkdkRi5wZSLpXERYYsL-75" target="jgkdkRi5wZSLpXERYYsL-22">
          <mxGeometry relative="1" as="geometry" />
        </mxCell>
        <mxCell id="jgkdkRi5wZSLpXERYYsL-81" style="edgeStyle=orthogonalEdgeStyle;rounded=0;orthogonalLoop=1;jettySize=auto;html=1;entryX=0;entryY=0;entryDx=0;entryDy=247.5;entryPerimeter=0;" edge="1" parent="jgkdkRi5wZSLpXERYYsL-84" source="jgkdkRi5wZSLpXERYYsL-74" target="jgkdkRi5wZSLpXERYYsL-22">
          <mxGeometry relative="1" as="geometry" />
        </mxCell>
        <mxCell id="jgkdkRi5wZSLpXERYYsL-82" style="edgeStyle=orthogonalEdgeStyle;rounded=0;orthogonalLoop=1;jettySize=auto;html=1;entryX=0;entryY=0.566;entryDx=0;entryDy=0;entryPerimeter=0;" edge="1" parent="jgkdkRi5wZSLpXERYYsL-84" source="jgkdkRi5wZSLpXERYYsL-73" target="jgkdkRi5wZSLpXERYYsL-22">
          <mxGeometry relative="1" as="geometry" />
        </mxCell>
        <mxCell id="jgkdkRi5wZSLpXERYYsL-83" style="edgeStyle=orthogonalEdgeStyle;rounded=0;orthogonalLoop=1;jettySize=auto;html=1;entryX=0;entryY=0.154;entryDx=0;entryDy=0;entryPerimeter=0;" edge="1" parent="jgkdkRi5wZSLpXERYYsL-84" source="jgkdkRi5wZSLpXERYYsL-72" target="jgkdkRi5wZSLpXERYYsL-22">
          <mxGeometry relative="1" as="geometry" />
        </mxCell>
        <mxCell id="jgkdkRi5wZSLpXERYYsL-101" value="" style="group" vertex="1" connectable="0" parent="1">
          <mxGeometry x="-70" y="460" width="420" height="310" as="geometry" />
        </mxCell>
        <mxCell id="jgkdkRi5wZSLpXERYYsL-12" value="Keyspace (commerce)&lt;div&gt;&lt;br&gt;&lt;/div&gt;&lt;div&gt;&lt;br&gt;&lt;/div&gt;&lt;div&gt;&lt;br&gt;&lt;/div&gt;&lt;div&gt;&lt;br&gt;&lt;/div&gt;&lt;div&gt;&lt;br&gt;&lt;/div&gt;&lt;div&gt;&lt;br&gt;&lt;/div&gt;&lt;div&gt;&lt;br&gt;&lt;/div&gt;&lt;div&gt;&lt;br&gt;&lt;/div&gt;&lt;div&gt;&lt;br&gt;&lt;/div&gt;&lt;div&gt;&lt;br&gt;&lt;/div&gt;&lt;div&gt;&lt;br&gt;&lt;/div&gt;&lt;div&gt;&lt;br&gt;&lt;/div&gt;&lt;div&gt;&lt;br&gt;&lt;/div&gt;&lt;div&gt;&lt;br&gt;&lt;/div&gt;&lt;div&gt;&lt;br&gt;&lt;/div&gt;&lt;div&gt;&lt;br&gt;&lt;/div&gt;&lt;div&gt;&lt;br&gt;&lt;/div&gt;&lt;div&gt;&lt;br&gt;&lt;/div&gt;&lt;div&gt;&lt;br&gt;&lt;/div&gt;&lt;div&gt;&lt;br&gt;&lt;/div&gt;" style="rounded=1;whiteSpace=wrap;html=1;fillColor=#f5f5f5;fontColor=#333333;strokeColor=#666666;fillOpacity=50;" vertex="1" parent="jgkdkRi5wZSLpXERYYsL-101">
          <mxGeometry width="420" height="310" as="geometry" />
        </mxCell>
        <mxCell id="jgkdkRi5wZSLpXERYYsL-36" value="" style="group" vertex="1" connectable="0" parent="jgkdkRi5wZSLpXERYYsL-101">
          <mxGeometry x="20" y="35" width="380" height="255" as="geometry" />
        </mxCell>
        <mxCell id="jgkdkRi5wZSLpXERYYsL-20" value="&lt;div&gt;Shard (-)&lt;/div&gt;&lt;div&gt;&lt;br&gt;&lt;/div&gt;&lt;div&gt;&lt;br&gt;&lt;/div&gt;&lt;div&gt;&lt;br&gt;&lt;/div&gt;&lt;div&gt;&lt;br&gt;&lt;/div&gt;&lt;div&gt;&lt;br&gt;&lt;/div&gt;&lt;div&gt;&lt;br&gt;&lt;/div&gt;&lt;div&gt;&lt;br&gt;&lt;/div&gt;&lt;div&gt;&lt;br&gt;&lt;/div&gt;&lt;div&gt;&lt;br&gt;&lt;/div&gt;&lt;div&gt;&lt;br&gt;&lt;/div&gt;&lt;div&gt;&lt;br&gt;&lt;/div&gt;&lt;div&gt;&lt;br&gt;&lt;/div&gt;&lt;div&gt;&lt;br&gt;&lt;/div&gt;&lt;div&gt;&lt;br&gt;&lt;/div&gt;&lt;div&gt;&lt;br&gt;&lt;/div&gt;&lt;div&gt;&lt;br&gt;&lt;/div&gt;" style="rounded=1;whiteSpace=wrap;html=1;fillColor=#ffe6cc;strokeColor=#d79b00;" vertex="1" parent="jgkdkRi5wZSLpXERYYsL-36">
          <mxGeometry width="380" height="255" as="geometry" />
        </mxCell>
        <mxCell id="jgkdkRi5wZSLpXERYYsL-17" value="" style="group" vertex="1" connectable="0" parent="jgkdkRi5wZSLpXERYYsL-36">
          <mxGeometry x="20" y="35" width="160" height="200" as="geometry" />
        </mxCell>
        <mxCell id="jgkdkRi5wZSLpXERYYsL-15" value="Primary&lt;div&gt;&lt;br&gt;&lt;/div&gt;&lt;div&gt;&lt;br&gt;&lt;/div&gt;&lt;div&gt;&lt;br&gt;&lt;/div&gt;&lt;div&gt;&lt;br&gt;&lt;/div&gt;&lt;div&gt;&lt;br&gt;&lt;/div&gt;&lt;div&gt;&lt;br&gt;&lt;/div&gt;&lt;div&gt;&lt;br&gt;&lt;/div&gt;&lt;div&gt;&lt;br&gt;&lt;/div&gt;&lt;div&gt;&lt;br&gt;&lt;/div&gt;&lt;div&gt;&lt;br&gt;&lt;/div&gt;" style="rounded=1;whiteSpace=wrap;html=1;" vertex="1" parent="jgkdkRi5wZSLpXERYYsL-17">
          <mxGeometry width="160" height="200" as="geometry" />
        </mxCell>
        <mxCell id="jgkdkRi5wZSLpXERYYsL-13" value="VTTablet" style="rounded=1;whiteSpace=wrap;html=1;fillColor=#dae8fc;strokeColor=#6c8ebf;" vertex="1" parent="jgkdkRi5wZSLpXERYYsL-17">
          <mxGeometry x="20" y="50" width="120" height="40" as="geometry" />
        </mxCell>
        <mxCell id="jgkdkRi5wZSLpXERYYsL-14" value="MySQL" style="shape=cylinder3;whiteSpace=wrap;html=1;boundedLbl=1;backgroundOutline=1;size=15;fillColor=#fff2cc;strokeColor=#d6b656;" vertex="1" parent="jgkdkRi5wZSLpXERYYsL-17">
          <mxGeometry x="20" y="120" width="120" height="60" as="geometry" />
        </mxCell>
        <mxCell id="jgkdkRi5wZSLpXERYYsL-16" style="edgeStyle=orthogonalEdgeStyle;rounded=0;orthogonalLoop=1;jettySize=auto;html=1;exitX=0.5;exitY=1;exitDx=0;exitDy=0;entryX=0.5;entryY=0;entryDx=0;entryDy=0;entryPerimeter=0;startArrow=classic;startFill=1;" edge="1" parent="jgkdkRi5wZSLpXERYYsL-17" source="jgkdkRi5wZSLpXERYYsL-13" target="jgkdkRi5wZSLpXERYYsL-14">
          <mxGeometry relative="1" as="geometry" />
        </mxCell>
        <mxCell id="jgkdkRi5wZSLpXERYYsL-31" value="" style="group" vertex="1" connectable="0" parent="jgkdkRi5wZSLpXERYYsL-36">
          <mxGeometry x="200" y="35" width="160" height="200" as="geometry" />
        </mxCell>
        <mxCell id="jgkdkRi5wZSLpXERYYsL-32" value="Replica&lt;div&gt;&lt;br&gt;&lt;/div&gt;&lt;div&gt;&lt;br&gt;&lt;/div&gt;&lt;div&gt;&lt;br&gt;&lt;/div&gt;&lt;div&gt;&lt;br&gt;&lt;/div&gt;&lt;div&gt;&lt;br&gt;&lt;/div&gt;&lt;div&gt;&lt;br&gt;&lt;/div&gt;&lt;div&gt;&lt;br&gt;&lt;/div&gt;&lt;div&gt;&lt;br&gt;&lt;/div&gt;&lt;div&gt;&lt;br&gt;&lt;/div&gt;&lt;div&gt;&lt;br&gt;&lt;/div&gt;" style="rounded=1;whiteSpace=wrap;html=1;" vertex="1" parent="jgkdkRi5wZSLpXERYYsL-31">
          <mxGeometry width="160" height="200" as="geometry" />
        </mxCell>
        <mxCell id="jgkdkRi5wZSLpXERYYsL-33" value="VTTablet" style="rounded=1;whiteSpace=wrap;html=1;fillColor=#dae8fc;strokeColor=#6c8ebf;" vertex="1" parent="jgkdkRi5wZSLpXERYYsL-31">
          <mxGeometry x="20" y="50" width="120" height="40" as="geometry" />
        </mxCell>
        <mxCell id="jgkdkRi5wZSLpXERYYsL-34" value="MySQL" style="shape=cylinder3;whiteSpace=wrap;html=1;boundedLbl=1;backgroundOutline=1;size=15;fillColor=#fff2cc;strokeColor=#d6b656;" vertex="1" parent="jgkdkRi5wZSLpXERYYsL-31">
          <mxGeometry x="20" y="120" width="120" height="60" as="geometry" />
        </mxCell>
        <mxCell id="jgkdkRi5wZSLpXERYYsL-35" style="edgeStyle=orthogonalEdgeStyle;rounded=0;orthogonalLoop=1;jettySize=auto;html=1;exitX=0.5;exitY=1;exitDx=0;exitDy=0;entryX=0.5;entryY=0;entryDx=0;entryDy=0;entryPerimeter=0;startArrow=classic;startFill=1;" edge="1" parent="jgkdkRi5wZSLpXERYYsL-31" source="jgkdkRi5wZSLpXERYYsL-33" target="jgkdkRi5wZSLpXERYYsL-34">
          <mxGeometry relative="1" as="geometry" />
        </mxCell>
        <mxCell id="jgkdkRi5wZSLpXERYYsL-102" value="" style="group" vertex="1" connectable="0" parent="1">
          <mxGeometry x="445" y="20" width="310" height="260" as="geometry" />
        </mxCell>
        <mxCell id="jgkdkRi5wZSLpXERYYsL-10" style="edgeStyle=orthogonalEdgeStyle;rounded=0;orthogonalLoop=1;jettySize=auto;html=1;exitX=0.5;exitY=1;exitDx=0;exitDy=0;entryX=0.5;entryY=0;entryDx=0;entryDy=0;startArrow=classic;startFill=1;fillColor=#dae8fc;strokeColor=#6c8ebf;" edge="1" parent="jgkdkRi5wZSLpXERYYsL-102" source="jgkdkRi5wZSLpXERYYsL-7" target="jgkdkRi5wZSLpXERYYsL-2">
          <mxGeometry relative="1" as="geometry" />
        </mxCell>
        <mxCell id="jgkdkRi5wZSLpXERYYsL-18" value="" style="group" vertex="1" connectable="0" parent="jgkdkRi5wZSLpXERYYsL-102">
          <mxGeometry x="85" y="180" width="140" height="80" as="geometry" />
        </mxCell>
        <mxCell id="jgkdkRi5wZSLpXERYYsL-4" value="" style="rounded=1;whiteSpace=wrap;html=1;fillColor=#dae8fc;strokeColor=#6c8ebf;" vertex="1" parent="jgkdkRi5wZSLpXERYYsL-18">
          <mxGeometry x="20" y="20" width="120" height="60" as="geometry" />
        </mxCell>
        <mxCell id="jgkdkRi5wZSLpXERYYsL-3" value="" style="rounded=1;whiteSpace=wrap;html=1;fillColor=#dae8fc;strokeColor=#6c8ebf;" vertex="1" parent="jgkdkRi5wZSLpXERYYsL-18">
          <mxGeometry x="10" y="10" width="120" height="60" as="geometry" />
        </mxCell>
        <mxCell id="jgkdkRi5wZSLpXERYYsL-2" value="VTGate" style="rounded=1;whiteSpace=wrap;html=1;fillColor=#dae8fc;strokeColor=#6c8ebf;" vertex="1" parent="jgkdkRi5wZSLpXERYYsL-18">
          <mxGeometry width="120" height="60" as="geometry" />
        </mxCell>
        <mxCell id="jgkdkRi5wZSLpXERYYsL-19" value="" style="group" vertex="1" connectable="0" parent="jgkdkRi5wZSLpXERYYsL-102">
          <mxGeometry width="310" height="80" as="geometry" />
        </mxCell>
        <mxCell id="jgkdkRi5wZSLpXERYYsL-9" value="" style="rounded=1;whiteSpace=wrap;html=1;fillColor=#e1d5e7;strokeColor=#9673a6;" vertex="1" parent="jgkdkRi5wZSLpXERYYsL-19">
          <mxGeometry x="20" y="20" width="290" height="60" as="geometry" />
        </mxCell>
        <mxCell id="jgkdkRi5wZSLpXERYYsL-8" value="" style="rounded=1;whiteSpace=wrap;html=1;fillColor=#e1d5e7;strokeColor=#9673a6;" vertex="1" parent="jgkdkRi5wZSLpXERYYsL-19">
          <mxGeometry x="10" y="10" width="290" height="60" as="geometry" />
        </mxCell>
        <mxCell id="jgkdkRi5wZSLpXERYYsL-7" value="Application" style="rounded=1;whiteSpace=wrap;html=1;fillColor=#e1d5e7;strokeColor=#9673a6;" vertex="1" parent="jgkdkRi5wZSLpXERYYsL-19">
          <mxGeometry width="290" height="60" as="geometry" />
        </mxCell>
        <mxCell id="jgkdkRi5wZSLpXERYYsL-89" value="" style="group" vertex="1" connectable="0" parent="1">
          <mxGeometry x="870" y="495" width="380" height="255" as="geometry" />
        </mxCell>
        <mxCell id="jgkdkRi5wZSLpXERYYsL-90" value="&lt;div&gt;Shard (x-80)&lt;/div&gt;&lt;div&gt;&lt;br&gt;&lt;/div&gt;&lt;div&gt;&lt;br&gt;&lt;/div&gt;&lt;div&gt;&lt;br&gt;&lt;/div&gt;&lt;div&gt;&lt;br&gt;&lt;/div&gt;&lt;div&gt;&lt;br&gt;&lt;/div&gt;&lt;div&gt;&lt;br&gt;&lt;/div&gt;&lt;div&gt;&lt;br&gt;&lt;/div&gt;&lt;div&gt;&lt;br&gt;&lt;/div&gt;&lt;div&gt;&lt;br&gt;&lt;/div&gt;&lt;div&gt;&lt;br&gt;&lt;/div&gt;&lt;div&gt;&lt;br&gt;&lt;/div&gt;&lt;div&gt;&lt;br&gt;&lt;/div&gt;&lt;div&gt;&lt;br&gt;&lt;/div&gt;&lt;div&gt;&lt;br&gt;&lt;/div&gt;&lt;div&gt;&lt;br&gt;&lt;/div&gt;&lt;div&gt;&lt;br&gt;&lt;/div&gt;" style="rounded=1;whiteSpace=wrap;html=1;fillColor=#ffe6cc;strokeColor=#d79b00;" vertex="1" parent="jgkdkRi5wZSLpXERYYsL-89">
          <mxGeometry width="380" height="255" as="geometry" />
        </mxCell>
        <mxCell id="jgkdkRi5wZSLpXERYYsL-91" value="" style="group" vertex="1" connectable="0" parent="jgkdkRi5wZSLpXERYYsL-89">
          <mxGeometry x="20" y="35" width="160" height="200" as="geometry" />
        </mxCell>
        <mxCell id="jgkdkRi5wZSLpXERYYsL-92" value="Primary&lt;div&gt;&lt;br&gt;&lt;/div&gt;&lt;div&gt;&lt;br&gt;&lt;/div&gt;&lt;div&gt;&lt;br&gt;&lt;/div&gt;&lt;div&gt;&lt;br&gt;&lt;/div&gt;&lt;div&gt;&lt;br&gt;&lt;/div&gt;&lt;div&gt;&lt;br&gt;&lt;/div&gt;&lt;div&gt;&lt;br&gt;&lt;/div&gt;&lt;div&gt;&lt;br&gt;&lt;/div&gt;&lt;div&gt;&lt;br&gt;&lt;/div&gt;&lt;div&gt;&lt;br&gt;&lt;/div&gt;" style="rounded=1;whiteSpace=wrap;html=1;" vertex="1" parent="jgkdkRi5wZSLpXERYYsL-91">
          <mxGeometry width="160" height="200" as="geometry" />
        </mxCell>
        <mxCell id="jgkdkRi5wZSLpXERYYsL-93" value="VTTablet" style="rounded=1;whiteSpace=wrap;html=1;fillColor=#dae8fc;strokeColor=#6c8ebf;" vertex="1" parent="jgkdkRi5wZSLpXERYYsL-91">
          <mxGeometry x="20" y="50" width="120" height="40" as="geometry" />
        </mxCell>
        <mxCell id="jgkdkRi5wZSLpXERYYsL-94" value="MySQL" style="shape=cylinder3;whiteSpace=wrap;html=1;boundedLbl=1;backgroundOutline=1;size=15;fillColor=#fff2cc;strokeColor=#d6b656;" vertex="1" parent="jgkdkRi5wZSLpXERYYsL-91">
          <mxGeometry x="20" y="120" width="120" height="60" as="geometry" />
        </mxCell>
        <mxCell id="jgkdkRi5wZSLpXERYYsL-95" style="edgeStyle=orthogonalEdgeStyle;rounded=0;orthogonalLoop=1;jettySize=auto;html=1;exitX=0.5;exitY=1;exitDx=0;exitDy=0;entryX=0.5;entryY=0;entryDx=0;entryDy=0;entryPerimeter=0;startArrow=classic;startFill=1;" edge="1" parent="jgkdkRi5wZSLpXERYYsL-91" source="jgkdkRi5wZSLpXERYYsL-93" target="jgkdkRi5wZSLpXERYYsL-94">
          <mxGeometry relative="1" as="geometry" />
        </mxCell>
        <mxCell id="jgkdkRi5wZSLpXERYYsL-96" value="" style="group" vertex="1" connectable="0" parent="jgkdkRi5wZSLpXERYYsL-89">
          <mxGeometry x="200" y="35" width="160" height="200" as="geometry" />
        </mxCell>
        <mxCell id="jgkdkRi5wZSLpXERYYsL-97" value="Replica&lt;div&gt;&lt;br&gt;&lt;/div&gt;&lt;div&gt;&lt;br&gt;&lt;/div&gt;&lt;div&gt;&lt;br&gt;&lt;/div&gt;&lt;div&gt;&lt;br&gt;&lt;/div&gt;&lt;div&gt;&lt;br&gt;&lt;/div&gt;&lt;div&gt;&lt;br&gt;&lt;/div&gt;&lt;div&gt;&lt;br&gt;&lt;/div&gt;&lt;div&gt;&lt;br&gt;&lt;/div&gt;&lt;div&gt;&lt;br&gt;&lt;/div&gt;&lt;div&gt;&lt;br&gt;&lt;/div&gt;" style="rounded=1;whiteSpace=wrap;html=1;" vertex="1" parent="jgkdkRi5wZSLpXERYYsL-96">
          <mxGeometry width="160" height="200" as="geometry" />
        </mxCell>
        <mxCell id="jgkdkRi5wZSLpXERYYsL-98" value="VTTablet" style="rounded=1;whiteSpace=wrap;html=1;fillColor=#dae8fc;strokeColor=#6c8ebf;" vertex="1" parent="jgkdkRi5wZSLpXERYYsL-96">
          <mxGeometry x="20" y="50" width="120" height="40" as="geometry" />
        </mxCell>
        <mxCell id="jgkdkRi5wZSLpXERYYsL-99" value="MySQL" style="shape=cylinder3;whiteSpace=wrap;html=1;boundedLbl=1;backgroundOutline=1;size=15;fillColor=#fff2cc;strokeColor=#d6b656;" vertex="1" parent="jgkdkRi5wZSLpXERYYsL-96">
          <mxGeometry x="20" y="120" width="120" height="60" as="geometry" />
        </mxCell>
        <mxCell id="jgkdkRi5wZSLpXERYYsL-100" style="edgeStyle=orthogonalEdgeStyle;rounded=0;orthogonalLoop=1;jettySize=auto;html=1;exitX=0.5;exitY=1;exitDx=0;exitDy=0;entryX=0.5;entryY=0;entryDx=0;entryDy=0;entryPerimeter=0;startArrow=classic;startFill=1;" edge="1" parent="jgkdkRi5wZSLpXERYYsL-96" source="jgkdkRi5wZSLpXERYYsL-98" target="jgkdkRi5wZSLpXERYYsL-99">
          <mxGeometry relative="1" as="geometry" />
        </mxCell>
        <mxCell id="jgkdkRi5wZSLpXERYYsL-48" value="" style="group" vertex="1" connectable="0" parent="1">
          <mxGeometry x="410" y="495" width="380" height="255" as="geometry" />
        </mxCell>
        <mxCell id="jgkdkRi5wZSLpXERYYsL-49" value="&lt;div&gt;Shard (80-x)&lt;/div&gt;&lt;div&gt;&lt;br&gt;&lt;/div&gt;&lt;div&gt;&lt;br&gt;&lt;/div&gt;&lt;div&gt;&lt;br&gt;&lt;/div&gt;&lt;div&gt;&lt;br&gt;&lt;/div&gt;&lt;div&gt;&lt;br&gt;&lt;/div&gt;&lt;div&gt;&lt;br&gt;&lt;/div&gt;&lt;div&gt;&lt;br&gt;&lt;/div&gt;&lt;div&gt;&lt;br&gt;&lt;/div&gt;&lt;div&gt;&lt;br&gt;&lt;/div&gt;&lt;div&gt;&lt;br&gt;&lt;/div&gt;&lt;div&gt;&lt;br&gt;&lt;/div&gt;&lt;div&gt;&lt;br&gt;&lt;/div&gt;&lt;div&gt;&lt;br&gt;&lt;/div&gt;&lt;div&gt;&lt;br&gt;&lt;/div&gt;&lt;div&gt;&lt;br&gt;&lt;/div&gt;&lt;div&gt;&lt;br&gt;&lt;/div&gt;" style="rounded=1;whiteSpace=wrap;html=1;fillColor=#ffe6cc;strokeColor=#d79b00;" vertex="1" parent="jgkdkRi5wZSLpXERYYsL-48">
          <mxGeometry width="380" height="255" as="geometry" />
        </mxCell>
        <mxCell id="jgkdkRi5wZSLpXERYYsL-50" value="" style="group" vertex="1" connectable="0" parent="jgkdkRi5wZSLpXERYYsL-48">
          <mxGeometry x="20" y="35" width="160" height="200" as="geometry" />
        </mxCell>
        <mxCell id="jgkdkRi5wZSLpXERYYsL-51" value="Primary&lt;div&gt;&lt;br&gt;&lt;/div&gt;&lt;div&gt;&lt;br&gt;&lt;/div&gt;&lt;div&gt;&lt;br&gt;&lt;/div&gt;&lt;div&gt;&lt;br&gt;&lt;/div&gt;&lt;div&gt;&lt;br&gt;&lt;/div&gt;&lt;div&gt;&lt;br&gt;&lt;/div&gt;&lt;div&gt;&lt;br&gt;&lt;/div&gt;&lt;div&gt;&lt;br&gt;&lt;/div&gt;&lt;div&gt;&lt;br&gt;&lt;/div&gt;&lt;div&gt;&lt;br&gt;&lt;/div&gt;" style="rounded=1;whiteSpace=wrap;html=1;" vertex="1" parent="jgkdkRi5wZSLpXERYYsL-50">
          <mxGeometry width="160" height="200" as="geometry" />
        </mxCell>
        <mxCell id="jgkdkRi5wZSLpXERYYsL-52" value="VTTablet" style="rounded=1;whiteSpace=wrap;html=1;fillColor=#dae8fc;strokeColor=#6c8ebf;" vertex="1" parent="jgkdkRi5wZSLpXERYYsL-50">
          <mxGeometry x="20" y="50" width="120" height="40" as="geometry" />
        </mxCell>
        <mxCell id="jgkdkRi5wZSLpXERYYsL-53" value="MySQL" style="shape=cylinder3;whiteSpace=wrap;html=1;boundedLbl=1;backgroundOutline=1;size=15;fillColor=#fff2cc;strokeColor=#d6b656;" vertex="1" parent="jgkdkRi5wZSLpXERYYsL-50">
          <mxGeometry x="20" y="120" width="120" height="60" as="geometry" />
        </mxCell>
        <mxCell id="jgkdkRi5wZSLpXERYYsL-54" style="edgeStyle=orthogonalEdgeStyle;rounded=0;orthogonalLoop=1;jettySize=auto;html=1;exitX=0.5;exitY=1;exitDx=0;exitDy=0;entryX=0.5;entryY=0;entryDx=0;entryDy=0;entryPerimeter=0;startArrow=classic;startFill=1;" edge="1" parent="jgkdkRi5wZSLpXERYYsL-50" source="jgkdkRi5wZSLpXERYYsL-52" target="jgkdkRi5wZSLpXERYYsL-53">
          <mxGeometry relative="1" as="geometry" />
        </mxCell>
        <mxCell id="jgkdkRi5wZSLpXERYYsL-55" value="" style="group" vertex="1" connectable="0" parent="jgkdkRi5wZSLpXERYYsL-48">
          <mxGeometry x="200" y="35" width="160" height="200" as="geometry" />
        </mxCell>
        <mxCell id="jgkdkRi5wZSLpXERYYsL-56" value="Replica&lt;div&gt;&lt;br&gt;&lt;/div&gt;&lt;div&gt;&lt;br&gt;&lt;/div&gt;&lt;div&gt;&lt;br&gt;&lt;/div&gt;&lt;div&gt;&lt;br&gt;&lt;/div&gt;&lt;div&gt;&lt;br&gt;&lt;/div&gt;&lt;div&gt;&lt;br&gt;&lt;/div&gt;&lt;div&gt;&lt;br&gt;&lt;/div&gt;&lt;div&gt;&lt;br&gt;&lt;/div&gt;&lt;div&gt;&lt;br&gt;&lt;/div&gt;&lt;div&gt;&lt;br&gt;&lt;/div&gt;" style="rounded=1;whiteSpace=wrap;html=1;" vertex="1" parent="jgkdkRi5wZSLpXERYYsL-55">
          <mxGeometry width="160" height="200" as="geometry" />
        </mxCell>
        <mxCell id="jgkdkRi5wZSLpXERYYsL-57" value="VTTablet" style="rounded=1;whiteSpace=wrap;html=1;fillColor=#dae8fc;strokeColor=#6c8ebf;" vertex="1" parent="jgkdkRi5wZSLpXERYYsL-55">
          <mxGeometry x="20" y="50" width="120" height="40" as="geometry" />
        </mxCell>
        <mxCell id="jgkdkRi5wZSLpXERYYsL-58" value="MySQL" style="shape=cylinder3;whiteSpace=wrap;html=1;boundedLbl=1;backgroundOutline=1;size=15;fillColor=#fff2cc;strokeColor=#d6b656;" vertex="1" parent="jgkdkRi5wZSLpXERYYsL-55">
          <mxGeometry x="20" y="120" width="120" height="60" as="geometry" />
        </mxCell>
        <mxCell id="jgkdkRi5wZSLpXERYYsL-59" style="edgeStyle=orthogonalEdgeStyle;rounded=0;orthogonalLoop=1;jettySize=auto;html=1;exitX=0.5;exitY=1;exitDx=0;exitDy=0;entryX=0.5;entryY=0;entryDx=0;entryDy=0;entryPerimeter=0;startArrow=classic;startFill=1;" edge="1" parent="jgkdkRi5wZSLpXERYYsL-55" source="jgkdkRi5wZSLpXERYYsL-57" target="jgkdkRi5wZSLpXERYYsL-58">
          <mxGeometry relative="1" as="geometry" />
        </mxCell>
        <mxCell id="jgkdkRi5wZSLpXERYYsL-103" style="edgeStyle=orthogonalEdgeStyle;rounded=0;orthogonalLoop=1;jettySize=auto;html=1;exitX=0.5;exitY=1;exitDx=0;exitDy=0;entryX=0.5;entryY=0;entryDx=0;entryDy=0;fillColor=#dae8fc;strokeColor=#6c8ebf;" edge="1" parent="1" source="jgkdkRi5wZSLpXERYYsL-2" target="jgkdkRi5wZSLpXERYYsL-15">
          <mxGeometry relative="1" as="geometry" />
        </mxCell>
        <mxCell id="jgkdkRi5wZSLpXERYYsL-104" style="edgeStyle=orthogonalEdgeStyle;rounded=0;orthogonalLoop=1;jettySize=auto;html=1;exitX=0.5;exitY=1;exitDx=0;exitDy=0;entryX=0.5;entryY=0;entryDx=0;entryDy=0;fillColor=#dae8fc;strokeColor=#6c8ebf;" edge="1" parent="1" source="jgkdkRi5wZSLpXERYYsL-2" target="jgkdkRi5wZSLpXERYYsL-32">
          <mxGeometry relative="1" as="geometry" />
        </mxCell>
        <mxCell id="jgkdkRi5wZSLpXERYYsL-105" style="edgeStyle=orthogonalEdgeStyle;rounded=0;orthogonalLoop=1;jettySize=auto;html=1;exitX=0.5;exitY=1;exitDx=0;exitDy=0;entryX=0.5;entryY=0;entryDx=0;entryDy=0;fillColor=#dae8fc;strokeColor=#6c8ebf;" edge="1" parent="1" source="jgkdkRi5wZSLpXERYYsL-2" target="jgkdkRi5wZSLpXERYYsL-51">
          <mxGeometry relative="1" as="geometry" />
        </mxCell>
        <mxCell id="jgkdkRi5wZSLpXERYYsL-106" style="edgeStyle=orthogonalEdgeStyle;rounded=0;orthogonalLoop=1;jettySize=auto;html=1;exitX=0.5;exitY=1;exitDx=0;exitDy=0;entryX=0.5;entryY=0;entryDx=0;entryDy=0;fillColor=#dae8fc;strokeColor=#6c8ebf;" edge="1" parent="1" source="jgkdkRi5wZSLpXERYYsL-2" target="jgkdkRi5wZSLpXERYYsL-56">
          <mxGeometry relative="1" as="geometry" />
        </mxCell>
        <mxCell id="jgkdkRi5wZSLpXERYYsL-107" style="edgeStyle=orthogonalEdgeStyle;rounded=0;orthogonalLoop=1;jettySize=auto;html=1;exitX=0.5;exitY=1;exitDx=0;exitDy=0;entryX=0.5;entryY=0;entryDx=0;entryDy=0;fillColor=#dae8fc;strokeColor=#6c8ebf;" edge="1" parent="1" source="jgkdkRi5wZSLpXERYYsL-2" target="jgkdkRi5wZSLpXERYYsL-92">
          <mxGeometry relative="1" as="geometry" />
        </mxCell>
        <mxCell id="jgkdkRi5wZSLpXERYYsL-108" style="edgeStyle=orthogonalEdgeStyle;rounded=0;orthogonalLoop=1;jettySize=auto;html=1;exitX=0.5;exitY=1;exitDx=0;exitDy=0;entryX=0.5;entryY=0;entryDx=0;entryDy=0;fillColor=#dae8fc;strokeColor=#6c8ebf;" edge="1" parent="1" source="jgkdkRi5wZSLpXERYYsL-2" target="jgkdkRi5wZSLpXERYYsL-97">
          <mxGeometry relative="1" as="geometry" />
        </mxCell>
        <mxCell id="jgkdkRi5wZSLpXERYYsL-110" style="edgeStyle=orthogonalEdgeStyle;rounded=0;orthogonalLoop=1;jettySize=auto;html=1;exitX=0;exitY=0.5;exitDx=0;exitDy=0;entryX=0.5;entryY=1;entryDx=0;entryDy=0;strokeColor=#82b366;fillColor=#d5e8d4;" edge="1" parent="1" source="jgkdkRi5wZSLpXERYYsL-75" target="jgkdkRi5wZSLpXERYYsL-20">
          <mxGeometry relative="1" as="geometry">
            <Array as="points">
              <mxPoint x="1360" y="718" />
              <mxPoint x="1360" y="840" />
              <mxPoint x="140" y="840" />
            </Array>
          </mxGeometry>
        </mxCell>
        <mxCell id="jgkdkRi5wZSLpXERYYsL-111" style="edgeStyle=orthogonalEdgeStyle;rounded=0;orthogonalLoop=1;jettySize=auto;html=1;exitX=0;exitY=0.5;exitDx=0;exitDy=0;entryX=0.5;entryY=1;entryDx=0;entryDy=0;strokeColor=#82b366;fillColor=#d5e8d4;" edge="1" parent="1" source="jgkdkRi5wZSLpXERYYsL-74" target="jgkdkRi5wZSLpXERYYsL-49">
          <mxGeometry relative="1" as="geometry">
            <Array as="points">
              <mxPoint x="1340" y="658" />
              <mxPoint x="1340" y="820" />
              <mxPoint x="600" y="820" />
            </Array>
          </mxGeometry>
        </mxCell>
        <mxCell id="jgkdkRi5wZSLpXERYYsL-112" style="edgeStyle=orthogonalEdgeStyle;rounded=0;orthogonalLoop=1;jettySize=auto;html=1;exitX=0;exitY=0.5;exitDx=0;exitDy=0;entryX=0.5;entryY=1;entryDx=0;entryDy=0;strokeColor=#82b366;fillColor=#d5e8d4;" edge="1" parent="1" source="jgkdkRi5wZSLpXERYYsL-73" target="jgkdkRi5wZSLpXERYYsL-90">
          <mxGeometry relative="1" as="geometry">
            <Array as="points">
              <mxPoint x="1320" y="602" />
              <mxPoint x="1320" y="800" />
              <mxPoint x="1060" y="800" />
            </Array>
          </mxGeometry>
        </mxCell>
        <mxCell id="jgkdkRi5wZSLpXERYYsL-113" style="edgeStyle=orthogonalEdgeStyle;rounded=0;orthogonalLoop=1;jettySize=auto;html=1;exitX=0;exitY=0.5;exitDx=0;exitDy=0;entryX=1;entryY=0.5;entryDx=0;entryDy=0;strokeColor=#82b366;fillColor=#d5e8d4;" edge="1" parent="1" source="jgkdkRi5wZSLpXERYYsL-23" target="jgkdkRi5wZSLpXERYYsL-2">
          <mxGeometry relative="1" as="geometry" />
        </mxCell>
        <mxCell id="jgkdkRi5wZSLpXERYYsL-118" style="edgeStyle=orthogonalEdgeStyle;rounded=0;orthogonalLoop=1;jettySize=auto;html=1;exitX=0;exitY=0.5;exitDx=0;exitDy=0;entryX=0.5;entryY=0;entryDx=0;entryDy=0;strokeColor=#82b366;fillColor=#d5e8d4;" edge="1" parent="1" source="jgkdkRi5wZSLpXERYYsL-23" target="jgkdkRi5wZSLpXERYYsL-20">
          <mxGeometry relative="1" as="geometry" />
        </mxCell>
        <mxCell id="jgkdkRi5wZSLpXERYYsL-119" style="edgeStyle=orthogonalEdgeStyle;rounded=0;orthogonalLoop=1;jettySize=auto;html=1;exitX=0;exitY=0.5;exitDx=0;exitDy=0;entryX=0.5;entryY=0;entryDx=0;entryDy=0;strokeColor=#82b366;fillColor=#d5e8d4;" edge="1" parent="1" source="jgkdkRi5wZSLpXERYYsL-23" target="jgkdkRi5wZSLpXERYYsL-49">
          <mxGeometry relative="1" as="geometry" />
        </mxCell>
        <mxCell id="jgkdkRi5wZSLpXERYYsL-120" style="edgeStyle=orthogonalEdgeStyle;rounded=0;orthogonalLoop=1;jettySize=auto;html=1;exitX=0;exitY=0.5;exitDx=0;exitDy=0;entryX=0.5;entryY=0;entryDx=0;entryDy=0;strokeColor=#82b366;fillColor=#d5e8d4;" edge="1" parent="1" source="jgkdkRi5wZSLpXERYYsL-23" target="jgkdkRi5wZSLpXERYYsL-90">
          <mxGeometry relative="1" as="geometry" />
        </mxCell>
      </root>
    </mxGraphModel>
  </diagram>
</mxfile>
